Patient4_TMGait_0pt4_01_left_23_EMG.mot
version=1
nRows=37
nColumns=33
inDegrees=no
endheader
time	1LAddLong	2LGlutMax	3LGlutMed	4LIliopsoas	5LSemiMemb	6LBicFemLong	7LRecFem	8LVastMed	9LVastLat	10LGasMed	11LTibAnt	12lTibPost	13LPeroneusLong	14LSol	15LExtDigLong	16LFlexDigLong	17RAddLong	18RGlutMax	19RGlutMed	20RIliopsoas	21RSemiMemb	22RBicFemLong	23RRecFem	24RVastMed	25RVastLat	26RGasMed	27RTibAnt	28RTibPost	29RPeroneusLong	30RSol	31RExtDigLong	32RFlexDigLong
28.107	0.004425	-0.19043	-0.041962	0.004578	-0.21652	0.2327	-0.044556	0.016479	0.089569	0.011292	0.011902	0.020599	-0.18066	-0.2861	-0.022888	-0.006561	0.053711	0.23407	-0.2095	-0.012512	-0.03891	0.054779	0.5188	-0.049133	-0.001831	0.000305	0.086975	0.037231	-0.77118	0.10864	0.002441	-0.031128
28.108	0.014496	-0.19363	-0.010834	-0.014191	-0.19699	0.18829	-0.088501	0.028076	0.0737	0.033264	0.029144	0.02243	-0.33676	-0.15869	-0.067596	-0.00473	0.093536	0.29312	-0.23636	-0.015259	-0.021362	0.028076	0.59677	0.030212	0.002441	0.033264	-0.00473	0.066986	-1.8161	-0.014801	-0.000916	-0.032806
28.109	0.018768	-0.22385	-0.11093	-0.003357	-0.011292	0.21271	-0.12924	0.011902	0.071106	0.056458	-0.022888	0.024414	0.010376	-0.24628	0.03479	-0.014648	0.13275	0.29862	-0.60272	0.002136	-0.032196	0.004883	0.42114	-0.04776	-0.019073	0.026093	-0.019073	0.063629	-0.98465	-0.012207	0.00061	-0.037842
28.11	0.020905	-0.25406	-0.020752	-0.009003	0.12573	0.25101	-0.16159	0.00351	0.065155	0.028992	-0.091095	0.0383	0.58975	-0.17258	0.97641	-0.029449	0.10056	0.31342	-0.68253	0.005951	-0.060272	-0.027771	0.29755	-0.10269	-0.021362	0.032196	-0.12756	-0.20187	0.37109	-0.63065	0.002136	-0.026093
28.111	0.016327	-0.25711	0.14252	0.010071	0.077362	0.077057	-0.2684	-0.001678	0.054474	0.018005	-0.086365	0.024872	0.43594	-0.12329	0.11841	-0.010986	0.073547	0.37994	-0.56824	-0.002441	-0.076904	-0.049438	0.30533	-0.16678	-0.00473	0.035706	-0.075073	0.028381	0.18906	-0.7843	0.003967	-0.021362
28.112	0.01297	-0.25192	0.007477	0.020294	0.030823	0.050201	-0.383	-0.001831	0.12192	0.027008	-0.042267	0.026703	0.22263	-0.059052	0.16708	-0.013733	0.062256	0.43839	-0.42526	0.028992	-0.071716	-0.041504	0.24689	-0.21851	0.011749	0.004578	-0.034332	-0.015869	-0.10696	-0.86151	0.000305	-0.027618
28.113	0.015106	-0.22568	-0.026398	0.009766	0.022888	0.097351	-0.38757	0.019989	0.19241	0.002136	0.052948	0.027161	0.31158	0.26291	-0.096588	-0.00473	0.066681	0.51529	-0.45502	0.10178	-0.059204	-0.047302	0.44632	-0.23239	0.000916	-0.008392	-0.005188	-0.13382	-0.12085	-0.68344	0.002441	-0.026855
28.114	0.000305	-0.24918	0.11749	-0.002899	0.019226	0.13825	-0.39429	0.021515	0.22324	0.035553	0.11856	0.027008	0.18219	0.39352	-0.009155	-0.006409	0.001984	0.55756	-0.19806	0.14389	-0.063782	0.000305	0.70297	-0.12878	0.04837	-0.024414	-0.032654	0.011444	-0.2945	-0.32379	-0.001068	-0.027771
28.115	-0.003357	-0.28702	0.12909	-0.006409	-0.001526	0.12909	-0.41382	0.018921	0.27054	0.023499	0.14221	0.032349	0.21072	0.40405	-0.18188	-0.015259	-0.039673	0.59845	0.00824	0.095367	-0.050201	0.062561	0.62408	-0.003662	0.072327	-0.032959	-0.02594	0.14786	-0.052338	-0.054016	-0.002899	-0.034485
28.116	-0.008087	-0.29144	0.10025	0.001068	-0.012817	-0.11673	-0.34027	-0.003052	0.27054	-0.028381	0.12497	0.014954	0.14221	0.41443	-0.073547	0.006866	-0.071259	0.62607	-0.14877	0.036163	-0.055084	0.082245	0.52521	-0.048981	0.076447	-0.012054	0.013123	0.053864	-0.1445	-0.29251	0.000305	-0.031586
28.117	-0.013275	-0.30777	0.003815	0.011749	-0.041199	-0.2002	-0.15701	-0.037689	0.077057	-0.036163	0.16129	0.020294	0.066223	0.39246	-0.18982	-0.00412	-0.10269	0.6247	-0.40344	0.073853	-0.045929	0.14557	0.51697	-0.025635	0.09552	-0.024719	-0.045776	0.016632	0.76736	-0.14801	0.001526	-0.028992
28.118	-0.015259	-0.30945	-0.068512	-0.00351	-0.047455	-0.09201	-0.11185	-0.016174	-0.20233	0.006866	0.065918	0.011749	-0.65597	0.25909	-0.63385	-0.005493	-0.10407	0.62393	-0.63217	0.068665	-0.031891	0.17349	0.74295	0.051727	0.089417	-0.023956	-0.12466	-0.019226	1.2881	0.051422	0.001831	-0.034485
28.119	-0.02121	-0.30899	-0.11154	0.006104	-0.047302	-0.046997	-0.12497	-0.006866	-0.18234	0.016632	-0.10361	0.009155	-0.5014	0.039825	-0.38467	-0.023499	-0.042267	0.62256	-0.60837	0.049438	-0.018005	0.14236	0.90454	0.11398	0.074921	-0.037384	-0.002747	-0.010223	0.16983	0.024109	-0.00061	-0.039673
28.12	-0.013275	-0.35782	-0.052032	-0.017548	-0.024414	-0.040283	-0.21301	0.010529	-0.016327	0.030518	-0.033417	0.014801	-0.61035	-0.084686	-0.37231	-0.020905	-0.015106	0.57739	-0.74326	0.086365	-0.016785	0.11765	0.85983	0.09552	0.069427	-0.045319	0.058594	-0.044861	-0.18646	0.11093	-0.001526	-0.041809
28.121	-0.010071	-0.39108	0.069275	0.019989	-0.022583	0.05249	-0.24292	-0.00412	0.16022	0.027466	-0.1091	0.01297	0.17334	-0.10239	-0.042725	-0.016174	0.004578	0.54153	-0.80322	0.080261	-0.001984	0.10284	0.76172	0.078278	0.06424	-0.019531	0.11704	-0.009918	-0.45792	0.26688	-0.002747	-0.028839
28.122	-0.005035	-0.36819	0.11673	0.002289	-0.027161	0.1326	-0.29205	-0.004578	0.18341	0.039978	-0.12238	0.011292	0.037384	-0.070038	-0.11978	-0.005035	-0.020599	0.50781	-0.4335	0.052338	0.013123	0.1004	0.57602	0.043335	0.049286	-0.010223	0.11124	0.023499	-0.29343	0.17212	-0.001678	-0.024567
28.123	-0.008545	-0.345	0.052948	0.007477	-0.021667	0.23544	-0.23102	-0.005646	0.17395	0.034943	0.015411	0.009003	0.33814	0.042572	0.001831	-0.005035	0.018005	0.48767	-0.53863	-0.078583	0.027771	0.080566	0.26382	-0.024414	0.07431	-0.011749	0.061188	0.005341	0.34347	0.091095	-0.007019	-0.028381
28.124	-0.008545	-0.40176	-0.050201	0.007324	-0.042419	0.29327	-0.17273	-0.001831	0.11414	0.007172	0.15442	0.005798	0.52567	0.028381	-0.005646	0.014038	0.057526	0.46158	-0.59601	-0.18646	0.015259	0.037842	0.23789	-0.078735	0.06012	-0.00824	-0.011139	-0.089874	0.18936	-0.10742	-0.001984	-0.03418
28.125	-0.002594	-0.36896	0.007782	-0.003662	-0.037231	-0.067902	-0.13275	-0.004578	0.15625	-0.030365	0.12802	0.005646	0.079346	0.10605	0.11169	0.008392	0.053406	0.44769	-0.42114	-0.09613	0.004578	-0.033112	0.38071	-0.12756	0.025787	-0.010529	-0.2092	-0.076599	0.47775	-0.5188	-0.00412	-0.020142
28.126	0.007019	-0.3418	-0.087128	-0.007935	-0.068512	-0.16007	-0.10239	0.003967	0.13779	-0.031738	0.14984	-0.001526	0.29755	0.21393	0.17212	0.004425	0.042114	0.33981	-0.43518	0.055542	-0.013428	-0.090027	0.47211	-0.090485	0.036621	-0.016937	-0.2388	-0.1178	0.24033	-0.44357	-0.007935	-0.026855
28.127	-0.002289	-0.29114	-0.12207	-0.025177	-0.070648	0.038147	-0.091858	0.002594	0.1564	0.030823	0.074921	-0.006256	0.45578	0.15396	0.018158	-0.005798	0.037231	0.29923	-0.54581	0.07019	-0.048828	-0.10819	0.48935	-0.075226	0.025024	-0.024872	-0.21286	-0.052032	-0.063019	-0.07431	-0.002441	-0.019684
28.128	-0.014954	-0.25116	-0.093384	-0.008545	0.004883	0.13611	-0.11292	0.014801	0.17731	-0.009766	-0.20065	-0.010223	-0.19699	0.29877	0.24399	0.000153	0.008698	0.17838	-0.49057	0.059357	-0.076904	-0.038757	0.45502	-0.066986	0.025177	-0.018158	-0.18494	0.064545	-0.1831	0.19669	-0.003052	-0.018005
28.129	0.001984	-0.23178	-0.088959	-0.013123	-0.013733	0.15778	-0.053864	0.021667	0.18448	-0.033569	-0.034943	-0.007019	-0.38742	0.14969	0.19867	0.009308	-0.027008	0.14282	-0.45471	0.050659	-0.066071	-0.00061	0.52368	-0.078735	0.033112	-0.0177	-0.15015	0.002594	0.40894	0.19623	-0.002899	-0.013123
28.13	0.002747	-0.20386	-0.11047	-0.000458	-0.003052	0.041046	0.023346	0.011902	0.14343	-0.032959	-0.17853	-0.015564	-0.55252	0.07843	-0.15137	-0.024872	-0.07782	0.075989	-0.43427	0.078278	-0.049896	0.026245	0.69488	-0.016022	0.032806	-0.027466	-0.12299	0.082245	0.54749	0.28519	-0.002136	-0.010834
28.131	0.001678	-0.15274	-0.10269	0.002747	-0.00473	-0.14404	0.10727	0.022125	0.10681	0.001526	-0.079193	-0.020447	-0.17532	0.09491	-0.17303	-0.015411	-0.079346	0.033875	-0.49774	-0.091858	-0.028381	0.058289	0.76889	0.059052	0.045471	-0.018616	-0.04364	0.024872	0.58411	0.079346	-0.002136	-0.011139
28.132	-0.00351	-0.083771	-0.029755	0.015259	-0.026093	-0.12405	0.103	0.00885	0.033875	0.014343	-0.003815	-0.019989	-0.10254	-0.16663	0.070648	-0.003967	-0.075989	0.004425	-0.4599	-0.12863	-0.037689	0.042877	0.82382	0.081329	0.036774	-0.017853	0.02243	0.000916	-0.097504	-0.14465	-0.007629	-0.019684
28.133	-0.00412	-0.019073	-0.000763	-0.010223	-0.009613	-0.177	-0.05661	0.010071	-0.093689	0.027161	0.033722	-0.019226	-0.23712	-0.46097	-0.10376	0.005798	-0.014954	-0.036011	-0.53207	-0.079346	0.01358	-0.018463	0.86578	0.026398	0.050201	-0.019226	0.072937	-0.00351	-0.54581	-0.20432	-0.009003	-0.019684
28.134	0.02243	0.037231	0.0177	-0.024567	0.005188	-0.24735	-0.23712	0.024567	-0.024414	0.036011	0.069122	-0.024567	-0.72815	-0.48401	0.24277	0.01358	0.0177	-0.06897	-0.55267	-0.074921	0.054474	0.020905	0.87372	-0.005035	0.04425	-0.01297	0.06424	-0.002441	-0.7544	-0.14374	-0.006714	-0.02182
28.135	0.015869	0.089417	0.028381	0.00412	0.02243	-0.23895	-0.22553	0.033569	0.019073	0.024261	0.15259	-0.019989	-0.38116	-0.37415	0.57816	0.017548	0.012665	-0.077667	-0.49988	0.12299	0.03891	0.003052	0.88776	-0.11429	0.043945	-0.001526	-0.014801	0.000916	-0.6398	-0.081482	-0.005798	-0.019226
28.136	0.019989	0.10284	-0.000153	-0.011292	0.055847	0	-0.3305	0.058594	0.040894	0.007477	0.13077	-0.02182	0.28793	-0.3302	0.74402	0.015869	0.002289	-0.073547	-0.25726	0.17685	0.040436	-0.013428	0.78461	-0.20218	0.054932	0.004883	-0.041504	0.0177	0.003357	-0.002441	-0.005493	-0.014954
28.137	0.021362	0.10162	0.030823	-0.001068	0.098724	0.052795	-0.34119	0.021667	-0.017548	-0.013123	0.039215	-0.018768	0.45731	-0.2948	0.11597	-0.001068	0.11429	-0.046539	-0.26855	0.089874	0.016785	-0.037384	0.79941	-0.24658	0.066528	0.015564	0.013275	0.002899	0.3801	0.053558	-0.004425	-0.015259
28.138	0.00824	0.14633	0.005646	-0.007172	0.059662	0.057983	-0.071869	-0.02243	-0.13245	-0.013123	0.10452	-0.016937	0.32227	-0.1886	-0.67505	-0.029602	0.14008	-0.092773	-0.11261	-0.026398	-0.002899	-0.010071	0.79697	-0.16419	0.090027	0.007172	-0.066833	-0.046997	0.29541	-0.025482	0.000153	-0.018005
28.139	0.006561	0.15579	0	0.002899	0.036011	0.15595	0.13031	-0.0354	-0.23163	0.028381	-0.055542	-0.019989	0.42679	-0.019684	-0.39581	-0.028229	0.069733	-0.15198	-0.11765	0.00885	-0.033875	-0.010681	0.80048	-0.15671	0.0914	-0.00473	0.029297	-0.28351	0.41061	-0.1297	-0.002136	-0.014343
28.14	-0.001984	0.18219	0.000305	0.007935	0.022888	0.14297	0.22018	-0.03479	-0.058746	0.014496	-0.12634	-0.016785	0.23453	-0.16968	-0.3305	-0.009308	0.0354	-0.22415	-0.49484	0.039368	-0.042572	0.007172	0.68863	-0.19257	0.10513	-0.012512	0.11383	-0.005035	0.010071	-0.24368	-0.006256	-0.019531
28.141	-0.007935	0.19821	-0.009308	0.014496	-0.001526	0.079803	0.1355	-0.02243	0.074463	-0.015869	-0.20569	-0.01358	0.12695	-0.15991	-0.27679	-0.002899	0.021515	-0.42877	-0.63843	0.020752	-0.041199	0.012512	0.6015	-0.21347	0.10834	-0.023804	-0.003052	0.16617	-0.93811	-0.22018	-0.00946	-0.010376
28.142	-0.014496	0.22217	-0.037384	0.008698	-0.057526	0.1326	0.045013	-0.008087	0.14252	0.006866	-0.025177	-0.010834	-0.32883	-0.085602	-0.017395	-0.004272	0.020142	-0.51453	-0.34576	-0.039673	-0.049896	0.022736	0.55771	-0.1622	0.1033	-0.019531	0.27008	0.1152	-0.92209	-0.27176	-0.007324	-0.003967
28.143	-0.025482	0.23224	-0.06073	-0.001221	-0.11551	0.21194	0.073853	-0.023956	0.19791	-0.031281	-0.12543	-0.008545	-0.28275	-0.06958	0.14542	0.010376	0.006714	-0.63705	-0.3598	-0.002289	-0.032806	0.022278	0.51636	-0.1178	0.10681	-0.015869	0.58716	0.063171	0.70648	-0.35782	-0.000153	-0.005188
